<svg width="72" height="72" viewBox="0 0 72 72" fill="none" xmlns="http://www.w3.org/2000/svg">
    <path d="M40.2148 17.906C46.6189 16.6149 51.7752 11.3813 53.0644 4.79297C54.3539 11.3813 59.5086 16.6149 65.9126 17.906M65.9126 17.9135C59.5086 19.2045 54.3525 24.4381 53.0633 31.0264C51.7738 24.4381 46.6189 19.2045 40.2148 17.9135" stroke="#131313" stroke-width="4.43756" stroke-linecap="round" stroke-linejoin="round"/>
    <path d="M18.4505 52.5683C29.7213 63.8712 41.6783 70.2518 48.3116 63.5996C54.9289 56.9635 48.6166 44.9907 37.3116 33.6539C26.0066 22.3168 14.0495 15.9364 7.41636 22.5884C0.798943 29.2246 7.11149 41.1973 18.4164 52.5341L18.4505 52.5683Z" stroke="#131313" stroke-width="4.43756" stroke-linecap="round" stroke-linejoin="round"/>
    <path d="M33.5674 22.083C28.7629 24.4307 23.5429 28.5211 18.4515 33.6268L18.4175 33.661C7.1466 44.9639 0.784307 56.9548 7.41746 63.607C14.0349 70.243 25.9737 63.9128 37.2786 52.5757C42.3793 47.4605 46.4738 42.2124 48.8224 37.3813" stroke="#131313" stroke-width="4.43756" stroke-linecap="round" stroke-linejoin="round"/>
</svg>
