<svg width="18" height="18" viewBox="0 0 18 18" fill="none" xmlns="http://www.w3.org/2000/svg">
    <g clip-path="url(#clip0_387_1145)">
        <path d="M1.26074 3.12646V1.92065C1.26074 1.53233 1.57554 1.21753 1.96387 1.21753H3.16967M1.26074 6.33832V8.68647M6.38153 1.21753H8.72967M11.9041 1.21753H13.0265C13.4148 1.21753 13.7297 1.53233 13.7297 1.92065V3.12646M1.26074 11.8609V12.9833C1.26074 13.3716 1.57554 13.6864 1.96387 13.6864H3.16967" stroke="#131313" stroke-width="1.13" stroke-linecap="round" stroke-linejoin="round"/>
        <path d="M16.7397 16.0793C16.7397 16.4676 16.4249 16.7824 16.0366 16.7824H5.6792C5.29088 16.7824 4.97607 16.4676 4.97607 16.0793V5.72192C4.97607 5.3336 5.29088 5.0188 5.6792 5.0188H16.0366C16.4249 5.0188 16.7397 5.3336 16.7397 5.72192V16.0793Z" stroke="#131313" stroke-width="1.13" stroke-linecap="round" stroke-linejoin="round"/>
    </g>
    <defs>
        <clipPath id="clip0_387_1145">
            <rect width="18" height="18" fill="white"/>
        </clipPath>
    </defs>
</svg>
