<svg width="18" height="18" viewBox="0 0 18 18" fill="none" xmlns="http://www.w3.org/2000/svg">
    <path d="M0 9C0 9.64647 0.256807 10.2665 0.713927 10.7236C1.17105 11.1807 1.79103 11.4375 2.4375 11.4375C3.08397 11.4375 3.70395 11.1807 4.16107 10.7236C4.61819 10.2665 4.875 9.64647 4.875 9C4.875 8.35354 4.61819 7.73355 4.16107 7.27643C3.70395 6.81931 3.08397 6.5625 2.4375 6.5625C1.79103 6.5625 1.17105 6.81931 0.713927 7.27643C0.256807 7.73355 0 8.35354 0 9Z" fill="black"/>
    <path d="M6.5625 9C6.5625 9.64647 6.81931 10.2665 7.27643 10.7236C7.73355 11.1807 8.35354 11.4375 9 11.4375C9.64647 11.4375 10.2665 11.1807 10.7236 10.7236C11.1807 10.2665 11.4375 9.64647 11.4375 9C11.4375 8.35354 11.1807 7.73355 10.7236 7.27643C10.2665 6.81931 9.64647 6.5625 9 6.5625C8.35354 6.5625 7.73355 6.81931 7.27643 7.27643C6.81931 7.73355 6.5625 8.35354 6.5625 9Z" fill="black"/>
    <path d="M13.125 9C13.125 9.64647 13.3818 10.2665 13.8389 10.7236C14.296 11.1807 14.916 11.4375 15.5625 11.4375C16.209 11.4375 16.829 11.1807 17.2861 10.7236C17.7432 10.2665 18 9.64647 18 9C18 8.35354 17.7432 7.73355 17.2861 7.27643C16.829 6.81931 16.209 6.5625 15.5625 6.5625C14.916 6.5625 14.296 6.81931 13.8389 7.27643C13.3818 7.73355 13.125 8.35354 13.125 9Z" fill="black"/>
</svg>
