<svg width="32" height="32" viewBox="0 0 32 32" fill="none" xmlns="http://www.w3.org/2000/svg">
    <g clip-path="url(#clip0_1045_2072)">
        <path d="M12.25 10.375L16 14.125L19.75 10.375" stroke="black" stroke-width="2" stroke-linecap="round" stroke-linejoin="round"/>
        <path d="M16 14.125V1.9375" stroke="black" stroke-width="2" stroke-linecap="round" stroke-linejoin="round"/>
        <path d="M25.375 26.3125H6.625" stroke="black" stroke-width="2" stroke-linecap="round" stroke-linejoin="round"/>
        <path d="M24.9062 23.5C24.6474 23.5 24.4375 23.2901 24.4375 23.0312C24.4375 22.7724 24.6474 22.5625 24.9062 22.5625" stroke="black" stroke-width="2"/>
        <path d="M24.9062 23.5C25.1651 23.5 25.375 23.2901 25.375 23.0312C25.375 22.7724 25.1651 22.5625 24.9062 22.5625" stroke="black" stroke-width="2"/>
        <path d="M28.1875 18.8125H3.8125C2.77696 18.8125 1.9375 19.652 1.9375 20.6875V28.1875C1.9375 29.223 2.77696 30.0625 3.8125 30.0625H28.1875C29.223 30.0625 30.0625 29.223 30.0625 28.1875V20.6875C30.0625 19.652 29.223 18.8125 28.1875 18.8125Z" stroke="black" stroke-width="2" stroke-linecap="round" stroke-linejoin="round"/>
    </g>
    <defs>
        <clipPath id="clip0_1045_2072">
            <rect width="32" height="32" fill="white"/>
        </clipPath>
    </defs>
</svg>
