<svg xmlns="http://www.w3.org/2000/svg" fill="none" viewBox="-1 -1 32 32" id="Settings-Slider-Desktop-Horizontal--Streamline-Ultimate" height="32" width="32">
    <desc>
        Settings Slider Desktop Horizontal Streamline Icon: https://streamlinehq.com
    </desc>
    <path stroke="#000000" stroke-linecap="round" stroke-linejoin="round" d="M10.835875 9.312137499999999c1.1523375 0 2.0865 -0.93415 2.0865 -2.0864875s-0.9341625 -2.0864875 -2.0865 -2.0864875 -2.0864875 0.93415 -2.0864875 2.0864875 0.93415 2.0864875 2.0864875 2.0864875" stroke-width="2"></path>
    <path stroke="#000000" stroke-linecap="round" stroke-linejoin="round" d="M17.287875 16.115125c1.1523750000000001 0 2.0865 -0.934125 2.0865 -2.0865s-0.934125 -2.0864875 -2.0865 -2.0864875c-1.15225 0 -2.0865 0.9341125 -2.0865 2.0864875s0.9342499999999999 2.0865 2.0865 2.0865" stroke-width="2"></path>
    <path stroke="#000000" stroke-linecap="round" stroke-linejoin="round" d="M5.6243875 7.2253375h3.125" stroke-width="2"></path>
    <path stroke="#000000" stroke-linecap="round" stroke-linejoin="round" d="m12.922374999999999 7.2253375 11.452 0" stroke-width="2"></path>
    <path stroke="#000000" stroke-linecap="round" stroke-linejoin="round" d="M15.201374999999999 14.028375H5.6243875" stroke-width="2"></path>
    <path stroke="#000000" stroke-linecap="round" stroke-linejoin="round" d="m19.374375 14.028375 5 0" stroke-width="2"></path>
    <path stroke="#000000" stroke-linecap="round" stroke-linejoin="round" d="M18.750625 29.0625H11.250612499999999l0.9375 -5h5.6250124999999995z" stroke-width="2"></path>
    <path stroke="#000000" stroke-linecap="round" stroke-linejoin="round" d="M9.0631125 29.0625h11.8750125" stroke-width="2"></path>
    <path stroke="#000000" stroke-linecap="round" stroke-linejoin="round" d="M0.93811 20.3125H29.063125" stroke-width="2"></path>
    <path stroke="#000000" d="M0.93811 3.4375c0 -1.3807125 1.11929 -2.5 2.5000025 -2.5H26.563125c1.38075 0 2.5 1.1192875 2.5 2.5v18.125c0 1.38075 -1.11925 2.5 -2.5 2.5H3.4381125c-1.3807125 0 -2.5000025 -1.11925 -2.5000025 -2.5z" stroke-width="2"></path>
</svg>