<svg width="40" height="40" viewBox="0 0 40 40" fill="none" xmlns="http://www.w3.org/2000/svg">
    <path d="M32.5013 14.9213C32.4856 12.6932 31.8747 10.5097 30.7317 8.59696C29.5888 6.6842 27.9554 5.11169 26.0006 4.0422C24.0459 2.97271 21.8408 2.44512 19.6136 2.51404C17.3865 2.58296 15.2182 3.24589 13.3333 4.43419C11.4484 5.6225 9.91538 7.293 8.89289 9.27276C7.87041 11.2525 7.39565 13.4696 7.51775 15.6945C7.63985 17.9193 8.35439 20.0711 9.58739 21.9271C10.8204 23.7831 12.527 25.2758 14.5307 26.2507V32.1888C14.5307 32.6032 14.6953 33.0007 14.9883 33.2938C15.2814 33.5868 15.6789 33.7515 16.0933 33.7515H23.9067C24.3211 33.7515 24.7186 33.5868 25.0116 33.2938C25.3047 33.0007 25.4693 32.6032 25.4693 32.1888V26.2507C27.5912 25.2184 29.3775 23.6067 30.6219 21.6018C31.8663 19.597 32.5179 17.2809 32.5013 14.9213Z" stroke="#131313" stroke-width="2" stroke-linecap="round" stroke-linejoin="round"/>
    <path d="M16.0933 33.6733H23.9067V36.0173C23.9067 36.4318 23.742 36.8293 23.449 37.1223C23.1559 37.4154 22.7584 37.58 22.344 37.58H17.656C17.2415 37.58 16.8441 37.4154 16.551 37.1223C16.258 36.8293 16.0933 36.4318 16.0933 36.0173V33.6733Z" stroke="#131313" stroke-width="2" stroke-linecap="round" stroke-linejoin="round"/>
    <path d="M14.5306 28.9854H25.4693" stroke="#131313" stroke-width="2" stroke-linecap="round" stroke-linejoin="round"/>
</svg>
