<svg width="18" height="18" viewBox="0 0 18 18" fill="none" xmlns="http://www.w3.org/2000/svg">
    <g clip-path="url(#clip0_387_1133)">
        <path d="M1.59751 9.95401C1.92483 10.7242 2.40063 11.4223 2.99776 12.0086C3.5949 12.5949 4.30166 13.0579 5.0777 13.371C5.85374 13.6842 6.68386 13.8414 7.52067 13.8337C8.35747 13.8261 9.18457 13.6536 9.95474 13.3263C10.7249 12.999 11.4231 12.5232 12.0094 11.9261C12.5957 11.3289 13.0586 10.6222 13.3717 9.84613C13.6849 9.07009 13.8421 8.23997 13.8344 7.40316C13.8268 6.56636 13.6543 5.73926 13.327 4.96909C12.9997 4.19891 12.5239 3.50075 11.9268 2.91446C11.3297 2.32817 10.6229 1.86524 9.84685 1.55209C9.07081 1.23894 8.24069 1.08171 7.40388 1.08938C6.56708 1.09705 5.73998 1.26946 4.9698 1.59677C4.19963 1.92409 3.50147 2.3999 2.91518 2.99703C2.32889 3.59416 1.86596 4.30093 1.55281 5.07697C1.23967 5.85301 1.08244 6.68313 1.09011 7.51994C1.09778 8.35674 1.2702 9.18384 1.59751 9.95401Z" stroke="#131313" stroke-width="1.13" stroke-linecap="round" stroke-linejoin="round"/>
        <path d="M11.9678 11.9673L16.91 16.9103" stroke="#131313" stroke-width="1.13" stroke-linecap="round" stroke-linejoin="round"/>
    </g>
    <defs>
        <clipPath id="clip0_387_1133">
            <rect width="18" height="18" fill="white"/>
        </clipPath>
    </defs>
</svg>
