<svg width="18" height="18" viewBox="0 0 18 18" fill="none" xmlns="http://www.w3.org/2000/svg">
    <g clip-path="url(#clip0_387_1138)">
        <path d="M2.14666 1.09229H15.8535C15.8535 1.09229 16.9079 1.09229 16.9079 2.14666V15.8535C16.9079 15.8535 16.9079 16.9079 15.8535 16.9079H2.14666C2.14666 16.9079 1.09229 16.9079 1.09229 15.8535V2.14666C1.09229 2.14666 1.09229 1.09229 2.14666 1.09229Z" stroke="#131313" stroke-width="1.13" stroke-linecap="round" stroke-linejoin="round"/>
        <path d="M9.70312 11.636H13.7449" stroke="#131313" stroke-width="1.13" stroke-linecap="round" stroke-linejoin="round"/>
        <path d="M4.25537 11.636H6.18839" stroke="#131313" stroke-width="1.13" stroke-linecap="round" stroke-linejoin="round"/>
        <path fill-rule="evenodd" clip-rule="evenodd" d="M9.70306 11.636C9.70306 11.9835 9.6 12.3233 9.4069 12.6123C9.21381 12.9012 8.93936 13.1265 8.61826 13.2595C8.29715 13.3925 7.94382 13.4273 7.60294 13.3595C7.26206 13.2917 6.94894 13.1243 6.70318 12.8785C6.45741 12.6328 6.29005 12.3197 6.22224 11.9788C6.15444 11.6379 6.18924 11.2846 6.32224 10.9635C6.45525 10.6424 6.68048 10.3679 6.96947 10.1748C7.25846 9.98173 7.59821 9.87866 7.94577 9.87866C8.17654 9.87866 8.40505 9.92412 8.61826 10.0124C8.83146 10.1007 9.02518 10.2302 9.18836 10.3934C9.35154 10.5565 9.48098 10.7503 9.56929 10.9635C9.65761 11.1767 9.70306 11.4052 9.70306 11.636Z" stroke="#131313" stroke-width="1.13" stroke-linecap="round" stroke-linejoin="round"/>
        <path d="M10.4059 6.36426H4.25537" stroke="#131313" stroke-width="1.13" stroke-linecap="round" stroke-linejoin="round"/>
        <path fill-rule="evenodd" clip-rule="evenodd" d="M13.9203 6.36423C13.9203 6.01667 13.8173 5.67691 13.6242 5.38793C13.4311 5.09894 13.1566 4.87371 12.8355 4.7407C12.5144 4.60769 12.1611 4.57289 11.8202 4.6407C11.4793 4.70851 11.1662 4.87587 10.9205 5.12163C10.6747 5.36739 10.5073 5.68051 10.4395 6.0214C10.3717 6.36228 10.4065 6.71561 10.5395 7.03671C10.6725 7.35782 10.8978 7.63227 11.1868 7.82536C11.4757 8.01845 11.8155 8.12152 12.1631 8.12152C12.6291 8.12152 13.0761 7.93638 13.4056 7.60682C13.7352 7.27726 13.9203 6.83029 13.9203 6.36423Z" stroke="#131313" stroke-width="1.13" stroke-linecap="round" stroke-linejoin="round"/>
    </g>
    <defs>
        <clipPath id="clip0_387_1138">
            <rect width="18" height="18" fill="white"/>
        </clipPath>
    </defs>
</svg>
