<svg width="206" height="206" viewBox="0 0 206 206" fill="none" xmlns="http://www.w3.org/2000/svg">
    <path fill-rule="evenodd" clip-rule="evenodd" d="M88.1922 179.267C75.1567 179.264 62.5053 179.262 51.2681 179.261C51.2358 179.401 51.2056 179.529 51.178 179.645C51.1239 179.873 51.0801 180.058 51.0507 180.212C62.3401 180.239 75.0608 180.264 88.1739 180.287C88.1799 179.965 88.1861 179.626 88.1922 179.267ZM120.902 180.337C120.896 180 120.891 179.647 120.886 179.278C158.308 179.293 191.8 179.318 196.571 179.349L196.572 179.348C197.479 179.354 197.654 180.363 196.811 180.368C190.528 180.404 157.553 180.385 120.902 180.337ZM44.1311 179.261H38.943C38.9321 179.271 38.9212 179.282 38.9105 179.291C38.9396 179.613 38.9899 179.91 39.0549 180.181C40.7688 180.186 42.5354 180.19 44.3494 180.195C44.2739 179.907 44.2013 179.592 44.1311 179.261ZM9.90059 179.273C12.8879 179.266 20.863 179.263 31.9342 179.262C31.8243 179.565 31.727 179.864 31.6758 180.159C20.6989 180.125 12.7753 180.089 9.74506 180.055C9.3104 180.05 9.4237 179.273 9.90059 179.273Z" fill="#191919"/>
    <path d="M89.3012 166.887C89.3012 164.944 89.2487 164.916 118.595 165.586C120.113 165.621 119.788 165.41 119.801 173.452C119.801 173.477 119.884 184.179 119.752 185.573C119.668 186.464 119.312 186.296 116.132 186.306C87.8541 186.401 89.0035 186.705 89.0818 185.417C89.3012 181.841 89.2992 170.855 89.3002 166.887H89.3012ZM117.908 185.286C118.533 185.286 118.361 185.338 118.324 180.245C118.225 166.577 118.661 166.576 117.932 166.584C90.4528 166.896 90.4672 166.041 90.4569 167.135C90.4363 169.345 90.5197 176.725 90.6732 180.536C90.8699 185.429 90.1747 185.283 91.6455 185.285H117.907L117.908 185.286Z" fill="#191919"/>
    <path d="M67.3368 124.356C67.4501 123.627 65.867 125.909 66.245 126.149C66.5035 126.314 67.1905 125.301 67.3368 124.356Z" fill="#191919"/>
    <path d="M67.0973 126.079C66.9531 126.207 66.986 126.389 67.0406 126.551C67.1735 126.945 68.4363 125.872 68.3333 124.807C68.3189 124.657 68.118 124.613 68.0336 124.738C67.7235 125.195 67.5144 125.71 67.0973 126.079Z" fill="#191919"/>
    <path fill-rule="evenodd" clip-rule="evenodd" d="M62.5069 128.423C62.165 128.577 61.7457 128.741 61.205 128.912H61.204C60.1585 129.241 58.6073 130.433 59.2326 130.273C60.7076 129.895 61.7808 129.497 62.5728 129.14L62.5069 128.423ZM62.8616 132.283C59.5042 135.373 53.7342 137.142 51.3778 137.866C50.7137 138.068 50.3208 138.189 50.3292 138.233C50.3787 138.489 50.4858 138.721 50.5909 138.938C50.6883 139.139 58.8953 137.199 63.7301 132.841L62.9036 132.739L62.8616 132.283Z" fill="#191919"/>
    <path d="M78.7913 112.508C79.9397 113.009 80.5855 112.718 80.3548 113.233C80.1241 113.748 79.6235 115.397 77.8324 117.135C73.5383 121.301 76.4666 118.886 71.7451 115.544C68.2606 113.079 63.0725 113.74 60.791 118.532C60.1503 119.878 60.7725 120.348 58.8948 119.211C57.0954 118.121 57.3034 118.286 54.8757 115.073C54.3061 114.319 55.3516 114.507 56.638 113.087C59.0441 110.43 60.4264 107.145 58.3231 104.193C56.2384 101.267 53.4852 101.632 54.0363 100.825C57.4734 95.7939 58.0069 96.2996 58.8371 95.5663C59.2481 95.2037 60.1473 99.196 66.4447 99.5812C67.1111 99.6224 69.2566 99.1188 70.8201 97.7056C73.3014 95.4623 72.5969 94.0058 73.2993 94.5795C74.2377 95.3448 75.072 95.3211 76.7735 96.9557C78.6213 98.7304 78.1815 98.5667 78.5297 98.8458C78.6491 98.9416 78.6574 99.1744 78.4689 99.2609C73.6269 101.495 71.8316 109.475 78.7892 112.506L78.7913 112.508ZM68.3018 104.161C64.2374 102.092 61.4945 108.628 66.0677 109.866C69.9086 110.905 71.503 105.79 68.3018 104.161Z" fill="#D4FFB7"/>
    <path d="M70.2051 87.4424C70.2051 87.4424 74.6743 88.4941 76.8074 89.5797L77.3038 84.7458L72.6925 83.2348L70.2051 87.4424Z" fill="#9B70E3"/>
    <path d="M81.4395 92.1566C81.4395 92.1566 84.4501 95.6205 85.5481 97.7484L88.7751 94.1156L85.9169 90.1954L81.4395 92.1566Z" fill="#9B70E3"/>
    <path d="M87.0693 101.488C87.0693 101.488 87.6369 106.041 87.3629 108.419L92.0669 107.203L91.8784 102.355L87.0693 101.488Z" fill="#9B70E3"/>
    <path d="M88.3712 120.877L83.6816 119.611C85.0958 117.679 86.852 113.44 86.852 113.44L90.6043 116.57C88.3599 120.872 90.6609 116.601 88.3723 120.878L88.3712 120.877Z" fill="#9B70E3"/>
    <path d="M80.3919 123.766C80.3919 123.766 76.4882 126.179 74.2129 126.92L77.2782 130.689L81.6073 128.5L80.3919 123.765V123.766Z" fill="#9B70E3"/>
    <path d="M70.1813 127.169C70.1813 127.169 65.6936 127.649 63.3926 126.997L63.8365 131.835L68.6518 132.428L70.1813 127.169Z" fill="#9B70E3"/>
    <path d="M47.0041 106.195C47.0041 106.195 47.6015 101.64 48.4667 99.4081H43.2034L42.1621 104.143L47.0041 106.195Z" fill="#9B70E3"/>
    <path d="M50.9721 94.9491C50.9721 94.9491 54.1167 91.6109 56.1242 90.3038L51.3779 87.05L47.7637 90.2853L50.9732 94.9491H50.9721Z" fill="#9B70E3"/>
    <path d="M59.4441 88.4743C59.4441 88.4743 63.9617 87.3969 66.3544 87.4309L64.0647 82.4674L59.2598 83.1399L59.4441 88.4743Z" fill="#9B70E3"/>
    <path fill-rule="evenodd" clip-rule="evenodd" d="M55.3673 123.32C53.7856 124.127 52.0101 124.906 50.2568 125.515L52.586 121.054C53.2782 121.761 54.3489 122.591 55.3673 123.32Z" fill="#9B70E3"/>
    <path fill-rule="evenodd" clip-rule="evenodd" d="M47.4589 110.69C47.8111 113.056 49.5436 117.307 49.5436 117.307H49.5425L46.9148 117.733C46.7938 117.673 46.6636 117.615 46.5237 117.559C45.8752 117.302 45.4477 116.875 45.0085 116.438C44.3537 115.786 43.6729 115.109 42.1958 114.921L41.8145 113.694L47.4589 110.69Z" fill="#9B70E3"/>
    <path fill-rule="evenodd" clip-rule="evenodd" d="M63.7697 125.543C72.6991 127.151 81.6939 121.94 84.5647 113.073C87.6959 103.403 82.3749 92.9863 72.7032 89.8551C63.0325 86.7239 52.6161 92.0449 49.4849 101.717C46.9072 109.677 50.0576 118.144 56.648 122.636C57.6926 122.053 58.6063 121.475 59.3093 120.954C53.0166 117.376 49.8713 109.743 52.1856 102.591C54.8348 94.4067 63.6474 89.9066 71.8308 92.5548C80.0152 95.2039 84.5163 104.016 81.8671 112.2C79.5124 119.475 72.2884 123.838 64.9651 122.859C64.6838 123.78 64.2768 124.676 63.7697 125.543Z" fill="#9B70E3"/>
    <path d="M56.6055 131.623C59.7027 129.358 63.2758 125.689 64.1564 121.955C64.59 120.113 65.1071 121.105 65.722 118.232C65.7766 117.974 65.5057 117.825 65.414 118.137C65.1143 119.164 64.2718 120.203 64.0689 120.373C63.6981 120.685 63.6435 120.083 62.8699 119.864C62.1263 119.655 62.8349 116.846 62.4713 116.744C62.1047 116.641 61.9934 117.528 61.9306 117.826C61.67 119.064 62.3745 119.764 61.912 120.058C60.3907 121.025 61.1457 122.197 50.8179 126.39C49.3512 126.986 46.426 127.781 44.1528 127.756C43.5873 127.75 43.1145 127.441 42.7891 127.035C42.6109 126.813 42.6572 126.394 42.6335 126.063C42.3328 122 42.2061 121.751 41.2502 121.725C40.6405 121.709 40.108 121.581 40.0894 120.904C40.0699 120.194 40.865 120.169 41.5706 120.27C41.172 118.828 42.3925 116.114 43.4771 117.112C43.8541 117.459 44.2372 117.812 44.5411 118.22C45.4176 119.397 47.182 118.998 46.3518 119.873C45.3826 120.896 46.736 123.16 45.363 123.802C44.7574 124.085 44.1445 124.444 43.4287 124.154C43.2237 124.072 42.9848 124.379 43.3195 124.519C44.2681 124.915 44.539 124.506 44.5226 125.055C44.5102 125.491 44.4329 127.473 44.8604 127.427C45.3043 127.381 44.882 126.684 45.0427 124.962C45.1076 124.268 46.5805 124.706 46.6794 122.778C46.734 121.714 46.5259 120.618 47.1429 119.626C47.5559 118.962 46.254 118.552 46.0222 118.445C43.8716 117.453 44.1363 115.803 41.1359 115.882C40.1327 115.909 38.3343 117.027 38.1602 117.367C37.9172 117.843 37.4104 117.9 37.1148 117.457C36.6286 116.728 33.9239 116.862 32.8032 118.924C31.9318 120.526 32.8197 123.219 33.3059 123.722C35.3329 125.818 32.9886 129.5 34.9611 128.576C35.0517 128.534 35.8561 127.753 36.5195 126.7C37.5381 125.081 36.4752 122.505 35.6223 120.795C35.2196 119.987 35.989 119.056 37.018 119.255C37.4537 119.34 36.7594 121.184 37.569 122.696C37.8389 123.2 37.9759 123.85 38.426 124.169C41.9888 126.69 41.8672 123.68 41.9589 126.756C41.9774 127.36 38.0881 127.04 37.3929 136.254C37.2497 138.154 37.1807 140.076 37.5453 141.974C37.604 142.282 37.5268 142.616 37.5762 142.93C38.1633 146.735 37.8945 147.778 45.0602 147.628C45.3455 147.622 47.2304 147.302 47.491 147.223C51.5585 145.988 52.1507 145.602 50.3276 139.93C48.4839 134.195 48.4963 137.555 56.6075 131.624L56.6055 131.623ZM50.1711 144.896C49.2997 147.029 41.275 147.001 39.5106 146.093C38.9636 145.812 38.4682 139.572 38.4981 137.645C38.6052 130.508 40.7188 129.128 41.3811 128.189C42.1371 127.115 42.2586 128.694 45.1756 128.669C48.4232 128.64 57.2822 125.234 60.8316 121.945C62.3251 120.561 62.2602 120.329 62.596 120.559C64.0699 121.571 63.0986 121.949 62.3797 123.715C60.262 128.912 50.511 134.522 47.0636 136.312C46.7123 136.495 44.711 137.363 46.3735 137.227C46.7082 137.199 47.6342 136.909 47.8443 136.773C48.7363 136.192 48.6158 137.656 49.449 139.595C50.0042 140.888 50.7129 143.572 50.1721 144.896H50.1711Z" fill="#191919"/>
    <path d="M35.3333 173.897C36.5415 169.396 36.5343 169.859 36.6301 169.417C38.5623 160.474 38.6108 150.994 39.2823 147.842C39.3699 147.433 38.241 145.105 36.9463 160.726C36.2726 168.86 32.1856 176.837 33.8728 177.999C35.1221 178.861 35.5321 178.745 36.8979 179.018C37.4345 179.125 37.7888 178.878 38.1617 178.587C41.2074 176.21 49.7121 146.864 47.1237 150.893C46.6726 151.596 39.1999 178.395 36.9535 178.113C36.4385 178.048 34.1838 177.487 34.3466 176.839C35.0696 173.954 35.0985 174.77 35.3333 173.897Z" fill="#191919"/>
    <path d="M49.0993 181.233C52.7413 181.235 50.8132 147.919 50.4764 147.935C49.2002 147.997 50.4032 151.095 50.1602 170.339C50.1602 170.362 49.9572 176.32 49.5164 178.423C49.0158 180.807 50.0736 180.436 46.8302 180.445C45.313 180.449 44.8835 168.117 43.7227 167.986C43.0882 167.915 44.148 173 44.251 173.358C44.6579 174.776 44.8371 178.326 45.1585 179.258C45.9124 181.445 44.7712 181.232 49.0993 181.234V181.233Z" fill="#191919"/>
    <path d="M39.3554 182.965C38.9867 182.329 38.4439 181.817 38.1586 181.128C37.7867 180.231 37.1296 179.596 36.183 179.361C33.3392 178.657 33.3876 178.267 33.1579 178.846C32.5379 180.418 32.5049 180.761 32.9334 181.224C36.7423 185.355 41.2558 185.262 40.5543 184.03C40.1794 183.372 39.5501 183.301 39.3554 182.964V182.965Z" fill="#191919"/>
    <path d="M53.9156 183.464C50.1066 182.628 51.0264 181.269 46.7962 181.563C45.7775 181.634 46.0247 182.647 45.966 182.88C45.793 183.558 46.4141 184.261 46.9692 184.38C48.266 184.659 54.2709 184.816 54.3801 183.919C54.4223 183.573 54.1751 183.52 53.9166 183.463L53.9156 183.464Z" fill="#191919"/>
    <path d="M64.8257 116.406C64.7628 116.268 64.562 116.289 64.5218 116.435C64.3735 116.968 64.3385 117.521 64.0604 118.005C63.9646 118.171 64.0542 118.336 64.1551 118.471C64.4044 118.803 65.2675 117.382 64.8257 116.406Z" fill="#191919"/>
    <path d="M63.2744 118.341C63.572 118.414 63.9006 117.237 63.7379 116.294C63.6122 115.567 62.8387 118.234 63.2744 118.341Z" fill="#191919"/>
    <path d="M44.269 119.68C44.2649 119.106 43.4985 118.949 43.5109 119.489C43.5263 120.137 44.2731 120.328 44.269 119.68Z" fill="#191919"/>
    <path d="M152.319 180.762C152.323 179.819 152.189 179.727 153.052 179.968C154.521 180.378 155.271 180.081 155.463 180.395C156.436 181.981 158.194 182.851 158.868 184.198C159.873 186.202 154.387 184.145 153.236 183.102C152.589 182.515 152.315 181.742 152.319 180.762Z" fill="#191919"/>
    <path d="M148.066 180.712C148.558 183.864 142.103 185.133 141.921 185.085C141.382 184.94 141.215 184.511 141.563 184.076C142.115 183.384 142.638 182.672 143.4 182.176C144.429 181.507 144.733 180.272 145.252 180.242C148.173 180.07 148.204 179.234 148.066 180.713V180.712Z" fill="#191919"/>
    <path d="M147.992 131.035C147.731 130.228 148.397 130.087 148.703 130.725C149.104 131.56 150.716 133.324 151.726 131.693C151.854 131.486 151.969 131.095 152.227 131.211C152.504 131.334 152.403 131.739 152.31 131.992C151.424 134.397 148.632 133.004 147.993 131.035H147.992Z" fill="#191919"/>
    <path d="M143.896 108.935C144.656 109.216 143.347 109.089 142.119 110.957C142 111.139 141.962 111.449 141.633 111.336C140.7 111.014 142.397 108.381 143.896 108.935Z" fill="#191919"/>
    <path d="M142.22 111.684C142.389 110.228 144.88 110.018 144.904 110.846C144.91 111.074 143.471 110.88 142.907 111.838C142.739 112.124 142.156 112.238 142.22 111.685V111.684Z" fill="#191919"/>
    <path fill-rule="evenodd" clip-rule="evenodd" d="M138.405 114.047C136.692 115.889 134.94 118.613 134.615 120.778C133.762 126.448 135.816 129.332 137.903 132.262C138.464 133.051 139.028 133.842 139.538 134.693C141.161 137.397 141.19 141.114 141.212 143.842C141.227 145.651 141.238 147.026 141.709 147.382C141.901 147.527 142.024 148.042 142.099 148.843C142.265 150.61 142.207 153.617 142.14 157.087C142.013 163.749 141.853 172.118 143.174 176.707C143.903 179.242 145.187 180.757 147.52 179.136C149.047 178.073 148.981 176.922 148.841 174.454C148.736 172.629 148.591 170.084 149.018 166.322C149.085 165.733 149.08 165.146 149.076 164.56C149.073 164.173 149.07 163.784 149.087 163.397C149.104 163.037 148.604 163.026 148.572 163.699C148.522 164.752 148.484 164.917 148.426 165.169C148.346 165.515 148.228 166.023 147.992 169.25C147.919 170.231 147.933 171.68 147.947 173.089C147.966 175.003 147.983 176.843 147.782 177.337C147.083 179.057 145.023 178.887 144.711 178.075C142.745 172.956 142.916 152.261 143.244 148.724C143.472 148.829 143.684 148.93 143.887 149.026C145.409 149.749 146.375 150.208 148.994 150.346C150.492 150.425 154.464 150.283 155.573 149.311C157.873 147.295 156.452 177.097 155.393 177.935C154.086 178.968 152.212 178.083 152.02 177.078C151.701 175.407 151.488 172.28 151.257 168.872C150.769 161.687 150.197 153.256 148.357 154.603C148.073 154.811 148.241 154.99 148.388 155.146C148.431 155.191 148.473 155.235 148.499 155.278C150.001 157.602 150.225 163.743 150.371 167.786C150.423 169.237 150.467 170.418 150.555 171.055C150.62 171.522 150.629 172.174 150.639 172.907C150.673 175.42 150.719 178.905 153.088 179.317C154.496 179.562 156.591 179.285 156.682 177.83C156.697 177.581 156.724 177.44 156.772 177.193C156.856 176.76 157.001 176.003 157.255 173.782C157.662 170.218 158.352 153.984 157.094 149.088C157.053 148.932 157.027 148.693 157.112 148.594C158.794 146.63 158.518 144.549 158.219 142.303C157.843 139.473 157.432 136.379 160.854 132.922L160.924 132.85C163.129 130.623 164.739 128.995 164.894 124.86L164.172 125.049C164.01 128.132 162.422 129.885 160.802 131.675C158.753 133.936 156.654 136.255 157.318 141.384C157.363 141.732 157.41 142.065 157.454 142.382C157.788 144.758 158.005 146.307 156.625 147.689C153.43 150.888 142.153 149.241 142.176 146.001C142.208 141.346 142.124 136.983 139.398 132.847C139.259 132.636 139.118 132.424 138.976 132.211C136.053 127.815 132.689 122.758 139.005 114.758C139.12 114.613 139.224 114.478 139.321 114.355C139.667 113.912 139.905 113.608 140.099 113.429L138.405 114.047ZM140.593 113.249C140.627 113.259 140.662 113.274 140.698 113.294C141.219 113.572 141.076 113.877 140.792 114.48C140.687 114.704 140.562 114.969 140.445 115.289C140.23 115.874 140.08 116.479 139.931 117.082C139.805 117.588 139.679 118.093 139.517 118.585C139.019 120.087 139.081 121.6 139.439 123.044C140.871 128.8 144.994 129.087 146.812 129.212C147.294 129.245 147.613 129.268 147.678 129.378C147.953 129.845 148.406 130.023 150.721 130.223C153.549 130.467 154.199 127.845 152.952 125.492C152.917 125.426 152.884 125.365 152.852 125.309C152.535 124.734 152.439 124.56 153.205 123.311C153.857 122.248 153.139 121.962 152.156 121.573C152.012 121.515 151.863 121.457 151.712 121.393L151.268 122.052C151.652 122.239 151.957 122.33 152.173 122.395C152.54 122.504 152.653 122.537 152.467 122.838C151.972 123.636 151.749 124.066 152.019 125.143C152.143 125.641 150.818 125.901 150.334 125.885C148.349 125.585 147.563 125.562 147.169 125.551C146.874 125.542 146.798 125.539 146.604 125.434C145.704 124.943 146.014 124.308 146.53 124.043L144.201 123.126C144.265 123.887 144.446 124.71 144.773 125.589C145.478 127.487 146.046 127.901 146.324 128.104C146.474 128.213 146.539 128.261 146.495 128.449C146.4 128.466 143.934 127.847 142.984 127.017C139.67 124.122 140.461 120.191 141.269 116.182C141.385 115.602 141.501 115.021 141.607 114.442C141.647 114.222 141.7 114.076 141.774 113.974C141.469 113.697 141.173 113.417 140.891 113.14L140.593 113.249ZM159.483 124.177C158.82 126.648 156.861 128.582 154.169 129.378C152.931 129.745 154.559 130.912 158.132 127.974C159.026 127.239 159.667 126.339 160.084 125.356L159.483 124.177Z" fill="#191919"/>
    <path d="M149.075 123.067C149.045 122.372 150.119 122.514 150.098 123.359C150.083 123.929 149.11 123.891 149.075 123.067Z" fill="#191919"/>
    <path fill-rule="evenodd" clip-rule="evenodd" d="M172.226 80.1617C162.688 71.0884 148.213 73.203 141.542 80.9033C133.916 88.318 132.207 100.459 139.24 109.818C139.657 108.702 140.535 107.843 141.779 107.843C141.943 107.843 142.115 107.839 142.291 107.834C142.528 107.827 142.773 107.82 143.019 107.825C137.549 100.95 138.419 91.5232 143.015 85.7999C149.973 77.1356 162.315 77.184 169.368 84.1468C176.172 90.8644 176.409 101.725 170.21 108.589C163.388 116.144 152.736 116.151 145.907 110.714C145.908 110.734 145.91 110.756 145.911 110.777C145.949 111.357 145.257 112.368 144.966 112.766C144.692 113.548 144.181 114.006 143.589 114.304C143.889 114.549 144.199 114.79 144.516 115.027C145.245 115.572 146.026 116.07 146.85 116.517C148.598 115.783 150.503 116.074 151.44 117.597C151.6 117.858 151.719 118.138 151.794 118.426C158.839 120.192 167.332 118.634 173.615 111.79C181.77 102.906 181.717 89.1907 172.226 80.1617Z" fill="#9B70E3"/>
    <path d="M168.798 108.377C162.267 115.067 151.817 115.033 145.377 108.781C138.62 102.222 138.555 91.6861 145.224 85.0415C151.54 78.7493 161.61 78.7215 168.032 84.5131C175.29 91.0588 175.029 101.992 168.797 108.377H168.798ZM163.673 90.2832C159.866 86.4073 153.311 86.3023 149.316 90.5345C145.569 94.5031 145.63 100.793 149.59 104.521C159.338 113.701 172.808 99.5821 163.674 90.2832H163.673Z" fill="#D6F94C"/>
    <path d="M168.251 75.966C168.251 75.966 172.123 78.4298 173.78 80.1571L175.84 75.7569L171.985 72.8111L168.251 75.965V75.966Z" fill="#9B70E3"/>
    <path d="M154.862 72.8183C154.862 72.8183 159.447 72.6072 161.795 73.0655L160.949 68.2801L156.1 68.0896L154.862 72.8183Z" fill="#9B70E3"/>
    <path d="M141.909 78.4702C141.909 78.4702 145.477 75.5852 147.64 74.5624L144.123 71.2098L140.106 73.929L141.91 78.4713L141.909 78.4702Z" fill="#9B70E3"/>
    <path d="M178.283 85.7006C178.283 85.7006 180.007 89.9525 180.356 92.3215L184.586 89.9329L183.153 85.2979L178.283 85.7006Z" fill="#9B70E3"/>
    <path d="M181.008 99.3186C181.008 99.3186 180.174 103.832 179.193 106.016L184.046 106.277L185.332 101.599L181.009 99.3175L181.008 99.3186Z" fill="#9B70E3"/>
    <path d="M175.813 111.333C175.813 111.333 172.61 114.618 170.581 115.887L174.466 118.804L178.137 115.632L175.813 111.333Z" fill="#9B70E3"/>
    <path d="M161.023 125.003L158.818 120.674C161.199 120.429 165.522 118.887 165.522 118.887L165.714 123.771L161.023 125.003Z" fill="#9B70E3"/>
    <path d="M139.617 112.906C139.617 112.906 136.846 109.253 135.89 107.057L131.822 110.504L134.416 114.604L139.618 112.907L139.617 112.906Z" fill="#9B70E3"/>
    <path d="M133.246 100.992C133.246 100.992 133.003 96.4094 133.444 94.0569L127.857 94.985L127.701 99.8352L133.246 100.992Z" fill="#9B70E3"/>
    <path d="M134.947 88.72C134.947 88.72 136.679 84.4733 138.083 82.5328L132.159 81.1608L129.951 85.4796L134.947 88.7189V88.72Z" fill="#9B70E3"/>
    <path d="M147.992 131.036C147.731 130.229 148.397 130.088 148.703 130.726C149.104 131.561 150.716 133.325 151.726 131.694C151.854 131.487 151.969 131.096 152.227 131.212C152.504 131.335 152.403 131.74 152.31 131.993C151.424 134.399 148.632 133.005 147.993 131.036H147.992Z" fill="#191919"/>
    <path d="M143.896 108.936C144.656 109.217 143.347 109.09 142.119 110.958C142 111.14 141.962 111.45 141.633 111.337C140.7 111.015 142.397 108.382 143.896 108.936Z" fill="#191919"/>
    <path d="M142.22 111.684C142.389 110.228 144.88 110.018 144.904 110.846C144.91 111.074 143.471 110.88 142.907 111.838C142.739 112.124 142.156 112.238 142.22 111.685V111.684Z" fill="#191919"/>
    <path d="M140.963 139.149C141.233 139.072 141.497 138.989 141.767 138.906C140.195 130.154 130.115 126.026 139.008 114.76C140.017 113.481 140.266 113.061 140.701 113.295C141.415 113.677 140.881 114.108 140.448 115.29C140.053 116.366 139.877 117.507 139.52 118.586C139.022 120.088 139.084 121.601 139.442 123.045C141.253 130.328 147.372 128.855 147.681 129.379C147.956 129.846 148.409 130.024 150.724 130.224C153.552 130.468 154.202 127.846 152.955 125.493C152.566 124.76 152.366 124.685 153.208 123.312C154.287 121.553 151.616 121.924 150.198 120.427C150.305 120.175 150.599 120.139 150.722 119.896C151.306 118.743 150.292 116.371 147.313 117.42C145.143 118.184 143.141 121.192 144.776 125.59C145.863 128.517 146.624 127.916 146.498 128.45C146.403 128.467 143.937 127.848 142.987 127.018C139.194 123.705 140.778 119.035 141.61 114.443C141.761 113.607 142.118 113.84 142.981 113.49C143.569 113.251 144.1 112.572 144.061 112.106C143.411 112.242 142.833 112.559 142.257 112.85C141.816 113.072 140.92 112.72 140.89 112.206C140.757 109.945 141.813 109.593 141.996 108.868C140.196 108.652 139.745 111.164 140.087 112.193C140.15 112.381 140.031 112.568 139.932 112.643C137.903 114.168 135.043 117.95 134.618 120.779C133.152 130.526 139.885 131.358 140.961 139.15L140.963 139.149ZM146.922 123.923C147.303 123.883 147.611 124.087 147.496 123.553C147.174 122.058 149.11 120.457 149.79 121.047C151.827 122.816 152.88 122.173 152.468 122.838C151.973 123.636 151.75 124.066 152.02 125.143C152.144 125.641 150.819 125.901 150.335 125.885C146.871 125.362 147.057 125.682 146.605 125.434C145.49 124.826 146.232 123.997 146.923 123.923H146.922Z" fill="#191919"/>
    <path d="M149.075 123.067C149.045 122.372 150.119 122.514 150.098 123.359C150.083 123.929 149.11 123.891 149.075 123.067Z" fill="#191919"/>
    <path d="M113.849 118.99C113.186 121.826 112.348 121.058 112.591 121.532C116.234 128.658 113.793 149.687 111.797 157.353C111.44 158.724 111.26 159.882 109.911 159.88C107.581 159.877 107.144 159.174 107.243 159.019C107.355 158.842 107.579 158.813 107.786 158.883C109.068 159.321 110.569 159.203 110.814 157.722C112.336 148.534 114.761 133.861 112.918 125.316C112.035 121.226 112.03 121.475 111.656 121.704C110.405 122.469 104.398 122.785 100.864 122.223C99.9118 122.071 100.192 121.994 99.6584 125.395C97.8713 136.78 101.977 155.082 104.132 158.654C104.488 159.245 105.037 159.086 105.529 159.05C107.944 158.871 106.255 145.407 107.082 134.348C107.23 132.37 108.257 126.488 108.925 126.676C109.539 126.849 108.1 129.206 107.811 134.654C107.233 145.51 108.631 157.242 106.405 159.398C105.88 159.906 105.282 159.794 103.876 159.789C102.829 159.785 99.2052 148.503 98.2545 136.802C97.6489 129.348 99.3422 121.881 99.2042 121.67C98.5831 120.723 99.0383 117.473 98.5419 115.442C96.0174 105.119 88.3933 98.2567 90.2174 86.5188C90.2689 86.1902 90.5419 86.1057 90.7911 85.9904C90.1525 85.1983 89.9898 83.367 90.2864 81.9888C90.3637 81.6324 90.8962 81.7056 90.8777 82.0723C90.8375 82.8685 90.8488 83.9788 91.2546 85.4146C91.4751 86.1964 91.8036 85.7082 92.7399 85.8565C93.2364 85.9348 93.4588 85.6515 93.5742 85.2591C93.8224 84.4165 94.1798 83.6039 94.289 82.7212C94.3374 82.3318 94.6155 82.4297 94.6742 82.717C95.1717 85.1654 93.91 85.5619 94.2509 86.2077C94.8236 87.2944 95.1872 91.163 95.9504 93.2251C98.4306 99.9294 103.155 100.004 103.018 100.97C102.968 101.328 101.659 101.131 101.055 100.632C100.425 100.11 99.4637 100.04 97.6066 97.9878C96.4015 96.656 94.6866 93.1746 94.4827 90.9807C94.357 89.6273 93.9028 88.3511 93.6597 87.0266C93.6154 86.7855 93.4918 86.6506 93.1879 86.6279C92.3516 86.5651 90.8735 86.4137 90.8663 87.1769C90.7602 98.2443 92.4484 97.306 98.2937 111.121C101.361 118.371 98.7716 120.727 100.896 121.276C103.317 121.903 108.874 121.61 111.267 120.889C112.061 120.65 112.622 120.248 112.654 119.295C113.144 104.866 115.251 106.028 119.74 97.137C121.104 94.4364 121.013 88.8249 121.019 88.7137C121.046 88.1266 120.691 87.6281 120.694 87.0482C120.694 86.9555 120.512 86.8813 120.376 86.8659C118.794 86.6815 118.803 86.6063 118.48 87.5704C118.307 88.0844 116.916 94.6527 114.235 96.9444C113.761 97.3492 113.428 97.0114 113.739 96.5839C116.194 93.1942 116.768 89.6798 117.818 86.9328C118.061 86.2963 116.604 85.6742 116.959 83.4823C117.171 82.1711 117.962 85.2859 118.304 85.7679C118.663 86.2726 118.651 86.0161 119.749 86.0233C121.592 86.0347 120.832 82.4132 121.217 82.3256C121.424 82.2793 121.465 82.5265 121.519 82.6635C122.511 85.152 120.844 85.7226 121.487 87.4767C122.354 89.8467 121.586 95.5581 120.681 97.5192C117.09 105.298 113.938 105.507 113.846 118.99H113.849Z" fill="#191919"/>
    <path d="M110.894 103.443C110.021 104.229 110.704 105.426 109.874 105.427C108.843 105.428 106.508 104.983 106.638 103.816C106.738 102.927 105.75 103.536 104.07 102.672C101.499 101.348 106.342 100.421 106.798 98.0603C107.08 96.6039 106.047 97.1426 106.775 93.8507C107.105 92.3613 107.216 92.5138 106.786 91.628C106.21 90.4455 105.913 92.8959 102.918 93.7354C102.151 93.9506 102.912 94.3873 102.586 96.7718C102.43 97.912 103.103 98.7834 104.165 99.0038C104.388 99.0502 104.753 99.079 104.696 99.3993C104.568 100.124 102.333 99.6589 101.987 98.2529C101.445 96.0487 102.333 95.749 101.706 94.1813C101.143 92.7713 103.361 93.1019 104.777 91.8093C106.696 90.0572 107.055 89.6823 109.291 89.9398C110.898 90.1242 112.377 92.0039 113.004 93.3697C114.281 96.1486 112.16 97.8657 113.578 101.295C114.246 102.912 113.904 105.141 111.799 105.384C110.728 105.508 110.893 105.556 110.893 103.444L110.894 103.443Z" fill="#191919"/>
    <path d="M103.683 164.443C102.396 164.472 101.114 164.258 99.8337 164.351C96.9147 164.563 96.7179 163.672 97.2401 163.234C98.5523 162.136 101.454 161.449 102.583 160.463C103.364 159.78 103.794 160.609 105.196 160.481C105.485 160.454 106.527 160.588 106.208 161.563C105.441 163.913 106.397 164.378 103.682 164.442L103.683 164.443Z" fill="#191919"/>
    <path d="M106.965 160.436C108.099 160.488 109.179 160.599 110.256 160.314C110.883 160.149 111.085 160.306 110.994 160.956C110.414 165.115 109.249 164.243 106.93 164.313C105.821 164.347 106.999 162.796 106.964 160.435L106.965 160.436Z" fill="#191919"/>
    <path d="M91.629 81.3213C91.7258 81.0844 92.0812 81.1534 92.0946 81.4088C92.1409 82.2555 92.0441 83.096 92.0637 83.9334C92.0678 84.1116 91.9947 84.2207 91.7979 84.2228C90.7885 84.2341 91.6362 81.3017 91.628 81.3213H91.629Z" fill="#191919"/>
    <path d="M119.316 83.881C119.32 84.5269 118.802 84.6329 118.607 84.0149C117.986 82.0435 117.855 81.8106 118.064 81.72C118.579 81.4955 119.191 83.1178 119.317 83.8821L119.316 83.881Z" fill="#191919"/>
    <path d="M93.0058 81.1699C93.3673 80.5158 93.561 82.6222 93.2736 83.542C93.1314 83.9962 92.5237 83.9571 92.5866 83.4688C92.6855 82.7015 92.6051 81.895 93.0058 81.1699Z" fill="#191919"/>
    <path d="M119.693 82.0162C119.684 81.7999 119.971 81.7207 120.074 81.9113C120.522 82.7394 120.728 84.6623 120.065 84.5366C119.831 84.4923 119.841 84.2771 119.854 84.0927C119.905 83.4036 119.718 82.7269 119.693 82.0162Z" fill="#191919"/>
    <path d="M104.746 94.9468C104.157 94.9324 104.423 93.8786 104.957 93.892C105.566 93.9064 105.506 94.9654 104.746 94.9468Z" fill="#191919"/>
    <path d="M115.829 80.3233C108.913 86.6156 98.482 85.9646 92.4246 79.3407C86.0695 72.3913 86.6288 61.8719 93.6802 55.6342C100.358 49.7272 110.412 50.2957 116.479 56.4572C123.339 63.422 122.43 74.3194 115.829 80.3243V80.3233ZM111.784 61.9605C108.214 57.8662 101.676 57.3698 97.4366 61.359C93.4618 65.0989 93.1497 71.3809 96.8814 75.3371C106.069 85.0778 120.352 71.7846 111.784 61.9605Z" fill="#9B70E3"/>
    <path d="M117.204 47.9415C117.204 47.9415 120.921 50.6298 122.476 52.4529L124.793 48.1825L121.118 45.0142L117.204 47.9415Z" fill="#9B70E3"/>
    <path d="M104.022 44.0096C104.022 44.0096 108.611 44.0663 110.929 44.6637L110.367 39.8381L105.54 39.3623L104.022 44.0096Z" fill="#9B70E3"/>
    <path d="M90.7572 48.8796C90.7572 48.8796 94.4889 46.2119 96.7096 45.3178L93.3971 41.7623L89.2256 44.2384L90.7572 48.8796Z" fill="#9B70E3"/>
    <path d="M126.64 58.254C126.64 58.254 128.108 62.6017 128.315 64.9861L132.682 62.853L131.527 58.1407L126.641 58.254H126.64Z" fill="#9B70E3"/>
    <path d="M128.554 72.0095C128.554 72.0095 127.452 76.4642 126.344 78.585L131.171 79.134L132.733 74.5412L128.553 72.0084L128.554 72.0095Z" fill="#9B70E3"/>
    <path d="M122.655 83.6925C122.655 83.6925 119.261 86.7815 117.161 87.9289L120.866 91.0715L124.719 88.1236L122.655 83.6925Z" fill="#9B70E3"/>
    <path d="M86.4345 83.1183C86.4345 83.1183 83.8801 79.3074 83.0572 77.0589L78.793 80.258L81.1393 84.5047L86.4345 83.1194V83.1183Z" fill="#9B70E3"/>
    <path d="M80.7778 70.8488C80.7778 70.8488 80.8067 66.2601 81.3855 63.9385L75.7535 64.5338L75.3096 69.3656L80.7778 70.8488Z" fill="#9B70E3"/>
    <path d="M83.201 58.6987C83.201 58.6987 85.1827 54.5601 86.6978 52.7061L80.867 50.986L78.4053 55.1678L83.201 58.6987Z" fill="#9B70E3"/>
    <path fill-rule="evenodd" clip-rule="evenodd" d="M120.921 52.3624C111.939 42.7402 97.3652 43.9916 90.2479 51.283L90.2468 51.282C81.1745 59.1138 79.2451 73.3812 89.1321 83.5998C89.118 82.9632 89.1777 82.3287 89.2971 81.7709C89.4868 80.8866 90.7749 80.4681 91.7876 80.2745C84.8299 72.9152 86.0207 62.229 91.4272 56.2589C98.8854 48.023 111.205 48.7996 117.832 56.1693V56.1703C124.225 63.2794 123.821 74.1325 117.225 80.6184C110.982 86.7575 102.243 87.1556 95.7881 83.4366C95.8455 84.1814 95.7033 85.0282 95.2535 85.9527C95.5472 86.64 95.7213 87.4958 95.8925 88.4511C98.6043 89.6654 101.675 90.3608 104.847 90.3787C105.928 89.4125 106.739 88.8511 108.231 88.8511C109.112 88.8511 109.992 89.1306 110.814 89.5894C114.186 88.6562 117.493 86.8605 120.433 84.0164C129.099 75.6332 129.862 61.9394 120.921 52.3624Z" fill="#9B70E3"/>
    <path d="M90.2166 86.5182C88.4337 97.9924 95.6726 104.808 98.3588 114.75C98.709 114.627 99.0582 114.497 99.4063 114.367C99.1612 113.411 98.81 112.335 98.2939 111.117C92.4425 97.3084 90.7749 98.2416 90.8666 87.1743C90.8728 86.41 92.3498 86.5594 93.1882 86.6253C93.4921 86.649 93.6177 86.7849 93.66 87.0239C93.8989 88.3495 94.3573 89.6267 94.4829 90.9781C94.6859 93.172 96.4018 96.6544 97.6069 97.9851C99.4651 100.037 100.426 100.107 101.055 100.629C101.659 101.13 102.968 101.326 103.019 100.967C103.155 100.001 98.4268 99.9288 95.9507 93.2224C95.1885 91.1583 94.8238 87.2886 94.2511 86.205C93.9102 85.5613 95.172 85.1627 94.6745 82.7144C94.6158 82.427 94.3377 82.3291 94.2893 82.7185C94.1801 83.5991 93.8227 84.4139 93.5745 85.2564C93.4591 85.6488 93.2366 85.9331 92.7402 85.8538C91.8039 85.7055 91.4764 86.1958 91.2549 85.4119C90.8501 83.9751 90.8378 82.8658 90.8779 82.0696C90.8965 81.705 90.3628 81.6298 90.2866 81.9861C89.99 83.3633 90.1528 85.1956 90.7914 85.9877C90.5422 86.101 90.2691 86.1886 90.2176 86.5161L90.2166 86.5182Z" fill="#191919"/>
    <path d="M110.895 103.443C110.021 104.229 110.704 105.426 109.874 105.427C108.843 105.428 106.508 104.983 106.639 103.816C106.739 102.927 105.75 103.536 104.07 102.672C101.499 101.348 106.342 100.421 106.798 98.0603C107.08 96.6039 106.047 97.1426 106.776 93.8507C107.105 92.3613 107.216 92.5138 106.786 91.628C106.21 90.4455 105.913 92.8959 102.918 93.7354C102.151 93.9506 102.912 94.3873 102.586 96.7718C102.43 97.912 103.103 98.7834 104.166 99.0038C104.388 99.0502 104.753 99.079 104.696 99.3993C104.568 100.124 102.333 99.6589 101.987 98.2529C101.445 96.0487 102.333 95.749 101.706 94.1813C101.143 92.7713 103.361 93.1019 104.777 91.8093C106.696 90.0572 107.055 89.6823 109.291 89.9398C110.898 90.1242 112.377 92.0039 113.004 93.3697C114.281 96.1486 112.16 97.8657 113.578 101.295C114.246 102.912 113.904 105.141 111.799 105.384C110.728 105.508 110.894 105.556 110.894 103.444L110.895 103.443Z" fill="#191919"/>
    <path d="M91.629 81.3213C91.7258 81.0844 92.0812 81.1534 92.0946 81.4088C92.1409 82.2555 92.0441 83.096 92.0637 83.9334C92.0678 84.1116 91.9947 84.2207 91.7979 84.2228C90.7885 84.2341 91.6362 81.3017 91.628 81.3213H91.629Z" fill="#191919"/>
    <path d="M93.0058 81.1699C93.3673 80.5158 93.561 82.6222 93.2736 83.542C93.1314 83.9962 92.5237 83.9571 92.5866 83.4688C92.6855 82.7015 92.6051 81.895 93.0058 81.1699Z" fill="#191919"/>
    <path d="M105.389 94.3784C105.301 95.0778 104.288 95.1323 104.425 94.5442C104.492 94.2568 104.512 93.8809 104.957 93.8922C105.29 93.9005 105.33 94.1641 105.389 94.3784Z" fill="#191919"/>
    <path d="M41.4623 54.2544C44.3411 48.0569 53.2794 44.0173 61.1074 48.1043C68.8973 52.1718 71.4651 61.005 67.8498 68.2398C63.9925 75.9586 55.53 77.9238 49.6878 75.7073C39.702 71.9179 37.2084 61.6797 41.4623 54.2555V54.2544ZM60.0012 51.1994C54.1663 48.0126 46.1982 50.2652 43.3142 57.1374C41.1749 62.2349 42.928 69.4747 49.3253 72.4628C54.7977 75.0192 61.9726 73.1106 65.0626 66.8029C67.7911 61.2316 65.6302 54.273 60.0023 51.1994H60.0012Z" fill="#9B70E3"/>
    <path d="M64.1114 66.9307C61.1367 72.4536 54.3933 74.3601 49.0857 71.5194C43.5165 68.5396 41.5286 61.7591 44.6001 56.2424C47.5088 51.0172 53.9957 49.1396 59.2065 51.6857C65.0981 54.5646 66.949 61.6613 64.1114 66.9307ZM57.4627 56.2095C54.2924 54.4142 50.0467 55.5575 48.2535 59.0255C46.5725 62.2772 47.7735 66.321 51.0149 67.9916C58.9974 72.1075 65.0723 60.5169 57.4637 56.2095H57.4627Z" fill="#9B70E3"/>
    <path d="M57.7695 46.1372C57.7695 46.1372 60.7215 47.0086 62.1089 47.8151L62.6239 44.5984L59.5937 43.4129L57.7706 46.1372H57.7695Z" fill="#9B70E3"/>
    <path d="M48.5527 46.5828C48.5527 46.5828 51.4676 45.596 53.0682 45.458L51.6376 42.5308L48.4775 43.3043L48.5527 46.5817V46.5828Z" fill="#9B70E3"/>
    <path d="M41.2475 52.6191C41.2475 52.6191 43.014 50.0987 44.2191 49.0398L41.332 47.5288L39.2432 50.0245L41.2465 52.6201L41.2475 52.6191Z" fill="#9B70E3"/>
    <path d="M66.0381 50.5575C66.0381 50.5575 67.9343 52.9801 68.5966 54.4427L70.8842 52.1211L69.1034 49.3967L66.0381 50.5575Z" fill="#9B70E3"/>
    <path d="M70.3096 58.8347C70.3096 58.8347 70.6052 61.8959 70.3765 63.4862L73.553 62.759L73.519 59.5053L70.3096 58.8347Z" fill="#9B70E3"/>
    <path d="M69.1802 67.5404C69.1802 67.5404 67.7218 70.2493 66.6475 71.442L69.6921 72.6049L71.473 69.8826L69.1792 67.5404H69.1802Z" fill="#9B70E3"/>
    <path d="M62.1689 79.086L59.9482 76.7015C61.4376 76.1041 63.9395 74.3109 63.9395 74.3109L64.9664 77.4246L62.1689 79.086Z" fill="#9B70E3"/>
    <path d="M55.1779 77.5748C55.1779 77.5748 52.1002 77.5439 50.5449 77.1494L50.9322 80.3846L54.1716 80.6946L55.1789 77.5748H55.1779Z" fill="#9B70E3"/>
    <path d="M46.1344 75.2421C46.1344 75.2421 43.6727 73.4005 42.6499 72.1604L40.6641 75.134L43.0928 77.298L46.1334 75.2421H46.1344Z" fill="#9B70E3"/>
    <path d="M39.8257 68.7374C39.8257 68.7374 38.8205 65.8307 38.6711 64.2321L35.2412 65.8626L36.0374 69.0165L39.8257 68.7374Z" fill="#9B70E3"/>
    <path d="M38.6523 60.5129C38.6523 60.5129 38.985 57.4559 39.5299 55.9449L35.4583 56.156L34.832 59.349L38.6533 60.5139L38.6523 60.5129Z" fill="#9B70E3"/>
    <path d="M158.489 44.5859C159.447 45.3924 160.156 45.3007 159.79 45.7282C159.423 46.1556 158.472 47.5935 156.259 48.7492C150.954 51.5168 154.452 50.0377 150.876 45.4892C148.238 42.1345 143.077 41.2879 139.525 45.2317C138.529 46.3379 138.99 46.9663 137.514 45.3409C136.1 43.7836 136.253 44.0019 134.842 40.2301C134.511 39.3473 135.458 39.8232 137.097 38.8282C140.162 36.968 142.421 34.2107 141.245 30.7839C140.08 27.387 137.338 26.9513 138.096 26.3354C142.824 22.4904 143.191 23.129 144.195 22.6624C144.692 22.4317 144.417 26.5156 150.342 28.6796C150.971 28.9093 153.169 29.037 155.071 28.1286C158.09 26.6866 157.828 25.0901 158.337 25.8389C159.018 26.8421 159.825 27.0564 160.992 29.1071C162.258 31.3329 161.882 31.0517 162.136 31.4184C162.222 31.5441 162.167 31.7696 161.96 31.7995C156.682 32.5669 152.686 39.6986 158.492 44.5869L158.489 44.5859ZM150.818 33.5979C147.512 30.4564 143.021 35.9411 147.05 38.4296C150.436 40.5205 153.422 36.0719 150.818 33.5979Z" fill="#DBC0F7"/>
    <path d="M157.412 18.1161C157.412 18.1161 161.391 20.3975 163.13 22.0445L164.984 17.5526L160.994 14.7912L157.413 18.1161H157.412Z" fill="#9B70E3"/>
    <path d="M166.833 25.8376C166.833 25.8376 168.731 30.0152 169.177 32.3667L173.306 29.8061L171.683 25.234L166.833 25.8376Z" fill="#9B70E3"/>
    <path d="M169.569 36.3809C169.569 36.3809 168.815 40.9068 167.876 43.1089L172.732 43.283L173.933 38.5831L169.569 36.3809Z" fill="#9B70E3"/>
    <path d="M138.232 51.5317C129.853 45.7751 127.721 34.2751 133.477 25.8961C139.234 17.517 150.734 15.3849 159.113 21.1416C167.492 26.8982 169.624 38.3982 163.868 46.7772C158.111 55.1563 146.611 57.2884 138.232 51.5317ZM157.506 23.4817C150.418 18.6109 140.687 20.4144 135.816 27.5049C130.944 34.5954 132.748 44.3238 139.839 49.1957C146.927 54.0666 156.658 52.263 161.53 45.1725C166.401 38.082 164.597 28.3536 157.506 23.4817Z" fill="#9B70E3"/>
    <path d="M165.296 55.3395L161.161 52.7893C163.068 51.339 165.959 47.7773 165.959 47.7773L168.664 51.8468C165.286 55.3313 168.71 51.8911 165.297 55.3395H165.296Z" fill="#9B70E3"/>
    <path d="M156.824 55.8363C156.824 55.8363 152.395 57.0373 150.003 57.1001L151.867 61.5878L156.64 60.7226L156.825 55.8363H156.824Z" fill="#9B70E3"/>
    <path d="M146.068 56.1862C146.068 56.1862 141.63 55.3694 139.608 54.0871L138.656 58.8518L143.103 60.7924L146.069 56.1852L146.068 56.1862Z" fill="#9B70E3"/>
    <path d="M135.101 50.8687C135.101 50.8687 132.061 47.4326 130.942 45.316L126.992 49.3876L129.888 53.281L135.102 50.8677L135.101 50.8687Z" fill="#9B70E3"/>
    <path d="M129.093 40.8567C129.093 40.8567 128.643 36.2887 128.979 33.9176L122.713 35.1896L122.774 40.042L129.093 40.8567Z" fill="#9B70E3"/>
    <path d="M129.824 29.4796C129.824 29.4796 131.691 25.2906 133.158 23.3954L128.115 21.8865L125.767 26.1332L129.823 29.4796H129.824Z" fill="#9B70E3"/>
    <path d="M136.832 19.8343C136.832 19.8343 140.798 17.5271 143.094 16.8483L139.47 12.3771L135.084 14.4495L136.832 19.8343Z" fill="#9B70E3"/>
    <path d="M146.798 16.0358C146.798 16.0358 151.435 16.2912 153.718 17.006L152.939 11.5944L148.141 10.8693L146.798 16.0358Z" fill="#9B70E3"/>
</svg>
