<svg width="39" height="39" viewBox="0 0 39 39" fill="none" xmlns="http://www.w3.org/2000/svg">
<g clip-path="url(#clip0_227_2266)">
<path fill-rule="evenodd" clip-rule="evenodd" d="M28.6981 1.85738C28.7664 1.59674 28.9192 1.36609 29.1325 1.20148C29.3458 1.03687 29.6076 0.94759 29.8771 0.94759C30.1465 0.94759 30.4083 1.03687 30.6216 1.20148C30.8349 1.36609 30.9877 1.59674 31.056 1.85738C31.5922 3.90813 32.1821 5.1675 33.0629 6.09863C33.9501 7.03625 35.2469 7.7675 37.4585 8.51013C37.7006 8.5914 37.911 8.74664 38.0601 8.95395C38.2091 9.16126 38.2894 9.41016 38.2894 9.6655C38.2894 9.92085 38.2091 10.1697 38.0601 10.3771C37.911 10.5844 37.7006 10.7396 37.4585 10.8209C35.2485 11.5635 33.9485 12.2948 33.0629 13.2324C32.1821 14.1651 31.5939 15.4229 31.056 17.4736C30.9871 17.7336 30.8343 17.9634 30.6212 18.1274C30.4081 18.2914 30.1468 18.3803 29.8779 18.3803C29.609 18.3803 29.3476 18.2914 29.1345 18.1274C28.9215 17.9634 28.7686 17.7336 28.6997 17.4736C28.1619 15.4229 27.572 14.1651 26.6912 13.2324C25.8056 12.2948 24.5072 11.5635 22.2956 10.8209C22.0536 10.7396 21.8431 10.5844 21.694 10.3771C21.545 10.1697 21.4648 9.92085 21.4648 9.6655C21.4648 9.41016 21.545 9.16126 21.694 8.95395C21.8431 8.74664 22.0536 8.5914 22.2956 8.51013C24.5072 7.7675 25.8056 7.03625 26.6912 6.10025C27.572 5.1675 28.1619 3.9065 28.6981 1.859V1.85738ZM13.0851 8.64825C13.1534 8.38762 13.3062 8.15697 13.5195 7.99236C13.7328 7.82775 13.9946 7.73846 14.2641 7.73846C14.5335 7.73846 14.7953 7.82775 15.0086 7.99236C15.2219 8.15697 15.3747 8.38762 15.443 8.64825C16.4099 12.3581 17.5067 14.781 19.2292 16.6108C20.955 18.4454 23.4282 19.8071 27.4046 21.1478C27.6467 21.229 27.8571 21.3843 28.0062 21.5916C28.1553 21.7989 28.2355 22.0478 28.2355 22.3031C28.2355 22.5585 28.1553 22.8074 28.0062 23.0147C27.8571 23.222 27.6467 23.3772 27.4046 23.4585C23.4282 24.7975 20.955 26.1609 19.2292 27.9955C17.5067 29.8253 16.4099 32.2481 15.443 35.958C15.3747 36.2186 15.2219 36.4493 15.0086 36.6139C14.7953 36.7785 14.5335 36.8678 14.2641 36.8678C13.9946 36.8678 13.7328 36.7785 13.5195 36.6139C13.3062 36.4493 13.1534 36.2186 13.0851 35.958C12.1166 32.2481 11.0214 29.8253 9.29887 27.9955C7.5715 26.1609 5.09987 24.7975 1.12187 23.4585C0.879806 23.3772 0.669378 23.222 0.520297 23.0147C0.371217 22.8074 0.291016 22.5585 0.291016 22.3031C0.291016 22.0478 0.371217 21.7989 0.520297 21.5916C0.669378 21.3843 0.879806 21.229 1.12187 21.1478C5.09987 19.8071 7.57312 18.4454 9.29887 16.6108C11.0214 14.781 12.1166 12.3581 13.0851 8.64825ZM32.3414 25.1371C32.0729 25.1369 31.8119 25.2254 31.5988 25.3888C31.3858 25.5522 31.2327 25.7813 31.1632 26.0406C30.7732 27.5031 30.3556 28.3498 29.7609 28.9656C29.1596 29.5896 28.2561 30.0999 26.636 30.6329C26.3922 30.713 26.1799 30.8681 26.0293 31.076C25.8788 31.2839 25.7978 31.534 25.7978 31.7907C25.7978 32.0474 25.8788 32.2975 26.0293 32.5054C26.1799 32.7133 26.3922 32.8684 26.636 32.9485C28.2561 33.4799 29.1596 33.9901 29.7609 34.6141C30.3556 35.2316 30.7732 36.0766 31.1632 37.5391C31.2321 37.7991 31.385 38.0289 31.5981 38.1929C31.8111 38.3569 32.0725 38.4458 32.3414 38.4458C32.6103 38.4458 32.8716 38.3569 33.0847 38.1929C33.2978 38.0289 33.4506 37.7991 33.5195 37.5391C33.9095 36.0766 34.3255 35.2316 34.9202 34.6141C35.5215 33.9901 36.425 33.4799 38.0451 32.9485C38.289 32.8684 38.5013 32.7133 38.6518 32.5054C38.8023 32.2975 38.8833 32.0474 38.8833 31.7907C38.8833 31.534 38.8023 31.2839 38.6518 31.076C38.5013 30.8681 38.289 30.713 38.0451 30.6329C36.425 30.0999 35.5215 29.5896 34.9202 28.9656C34.3255 28.3498 33.9095 27.5031 33.5179 26.0406C33.4485 25.7816 33.2956 25.5526 33.0829 25.3893C32.8702 25.2259 32.6096 25.1373 32.3414 25.1371Z" fill="#9B70E3"/>
</g>
<defs>
<clipPath id="clip0_227_2266">
<rect width="39" height="39" fill="white"/>
</clipPath>
</defs>
</svg>
